<svg xmlns="http://www.w3.org/2000/svg" viewBox="0 0 146.77 174.4"><defs><style>.cls-1{opacity:0.4;}.cls-2{fill:#fff;}</style></defs><title>Fichier 1</title><g id="Calque_2" data-name="Calque 2"><g id="Calque_2-2" data-name="Calque 2"><path class="cls-1" d="M71.52,164.89a1.89,1.89,0,0,1-.2.2c-1.89,1.81-5.26,3.34-11.31,3.31,0,0,0,0-.06,0,6.92,0,10.35-2,12-4.07a5.34,5.34,0,0,1-.39.44Z"/><path class="cls-1" d="M22.17,170.11l-.05,0c2.28,3.06,4.77,4.16,7.07,4.27l-.11,0C26.82,174.19,24.4,173.07,22.17,170.11Z"/><path class="cls-1" d="M56.11,172.21a10.88,10.88,0,0,1-4.22,1.46.71.71,0,0,1-.34,0,7.36,7.36,0,0,1-3.83-.72.05.05,0,0,1,0,0c2.9,1.43,6.06.63,8.44-.78h0Z"/><path class="cls-1" d="M98.94,85.3a34.44,34.44,0,0,1,3.71-12.47,34.62,34.62,0,0,0-3.73,12.5c-2.5,8.81,10.5,44,1,62.73C109.45,129.32,96.43,94.12,98.94,85.3Z"/><path class="cls-1" d="M59.19,169.59l-.09.12Z"/><path class="cls-1" d="M58.55,170.32l-.17.16A11.84,11.84,0,0,1,56.53,172v0A11.25,11.25,0,0,0,59,169.82l-.36.4Z"/><path class="cls-1" d="M29.57,174.35h0l0,0a10.06,10.06,0,0,0,3.84-.82h-.06A10,10,0,0,1,29.57,174.35Z"/><path class="cls-1" d="M33.72,173.4v0A15.68,15.68,0,0,0,37.52,171h0A16,16,0,0,1,33.72,173.4Z"/><path class="cls-1" d="M47.28,172.74a8.89,8.89,0,0,1-2.49-2.18c-4.45,0-6.21,0-6.71,0l0,0h6.71a9.08,9.08,0,0,0,2.58,2.23l-.07-.07Z"/><path class="cls-1" d="M4.79,7.9C3.14,11.57,3.85,24.3,5,32.32c0,0,0,0,0,0C3.87,24.3,3.16,11.61,4.79,7.9Z"/><path class="cls-1" d="M121.83,65.69q-.7.72-1.41,1.59c10.24-12.61,23.11,0,26-3.77l-.12.13C143.31,66.77,131.66,55.89,121.83,65.69Z"/><path class="cls-1" d="M12.9,67.39h0C4.92,100.5-5.78,175.39,22,170l0,0C-5.74,175.25,4.93,100.51,12.9,67.39Z"/><path class="cls-1" d="M107.55,157.77c-.25.26-.5.51-.77.75-11,10.67-29.83,2.55-32.74,1.2h0c2.8,1.31,21.69,9.52,32.77-1.18a20.91,20.91,0,0,0,2.17-2.35C108.5,156.74,108,157.27,107.55,157.77Z"/><path class="cls-1" d="M2.4,36.05C-1.66,44.31-2,60.23,12.88,67.29l0-.05C-2,60.17-1.64,44.31,2.4,36.05Z"/><path class="cls-1" d="M39.47,11.93a44.25,44.25,0,0,0-2.74,6.21h0A43.7,43.7,0,0,1,39.47,11.93Z"/><path class="cls-1" d="M45.87.05l.05,0H45.8s-3.64,6.53-6.33,11.91C42.16,6.55,45.79.05,45.79.05Z"/><path class="cls-1" d="M5.2,7.24l0,0a2.62,2.62,0,0,0-.44.71A2.68,2.68,0,0,1,5.2,7.24Z"/><path class="cls-1" d="M110.06,62.9a39,39,0,0,0-7.41,9.93,37.52,37.52,0,0,1,3.8-5.89A40.94,40.94,0,0,1,110.06,62.9Z"/><path class="cls-1" d="M97.61,151.66a21.32,21.32,0,0,0,2.29-3.6,21.27,21.27,0,0,1-3.67,5.17l0,0A18.17,18.17,0,0,0,97.61,151.66Z"/><path class="cls-1" d="M4.41,33c.09-.11.19-.22.29-.32a1.29,1.29,0,0,1,.16-.17A13.38,13.38,0,0,0,2.4,36.05a15.08,15.08,0,0,1,1.87-2.93Z"/><path class="cls-1" d="M36.8,18c1-3.45,7.93-16,8.92-17.83a.5.5,0,0,1,.15-.14h-.08s-3.63,6.5-6.32,11.88a43.7,43.7,0,0,0-2.73,6.21Z"/><path class="cls-1" d="M36.8,18c1-3.45,7.93-16,8.92-17.83a.5.5,0,0,1,.15-.14h-.08s-3.63,6.5-6.32,11.88a43.7,43.7,0,0,0-2.73,6.21Z"/><path class="cls-1" d="M29,174.32v0a7.91,7.91,0,0,1-3.26-1c-.14,0-.5-.28-.5-.28v0a12,12,0,0,1-3-2.84l-.09,0c2.23,3,4.65,4.08,6.91,4.22l-.08,0Z"/><path class="cls-1" d="M29,174.32v0a7.91,7.91,0,0,1-3.26-1c-.14,0-.5-.28-.5-.28v0a12,12,0,0,1-3-2.84l-.09,0c2.23,3,4.65,4.08,6.91,4.22l-.08,0Z"/><path class="cls-1" d="M4.41,33a3,3,0,0,1,.29-.32C4.6,32.74,4.5,32.85,4.41,33Z"/><path class="cls-1" d="M4.41,33a3,3,0,0,1,.29-.32C4.6,32.74,4.5,32.85,4.41,33Z"/><path class="cls-1" d="M33.3,173.56h0a9.82,9.82,0,0,1-3.71.75s0,0,0,0a10,10,0,0,0,3.75-.79h0Z"/><path class="cls-1" d="M33.3,173.56h0a9.82,9.82,0,0,1-3.71.75s0,0,0,0a10,10,0,0,0,3.75-.79h0Z"/><path class="cls-1" d="M71.61,164.8l-.09.09Z"/><path class="cls-1" d="M71.61,164.8l-.09.09Z"/><path class="cls-1" d="M58.65,170.22l-.1.1Z"/><path class="cls-1" d="M58.65,170.22l-.1.1Z"/><path class="cls-1" d="M5,32.3a.37.37,0,0,0,0-.18C3.83,23.57,3.12,9.81,5.2,7.24a2.68,2.68,0,0,0-.41.66C3.16,11.61,3.87,24.3,5,32.3Z"/><path class="cls-1" d="M5,32.3a.37.37,0,0,0,0-.18C3.83,23.57,3.12,9.81,5.2,7.24a2.68,2.68,0,0,0-.41.66C3.16,11.61,3.87,24.3,5,32.3Z"/><path class="cls-1" d="M33.72,173.37v0A16,16,0,0,0,37.51,171h0A15.56,15.56,0,0,1,33.72,173.37Z"/><path class="cls-1" d="M33.72,173.37v0A16,16,0,0,0,37.51,171h0A15.56,15.56,0,0,1,33.72,173.37Z"/><path class="cls-1" d="M74.24,159.75a.36.36,0,0,0-.2,0c2.91,1.35,21.7,9.47,32.74-1.2.27-.24.52-.49.77-.75-.23.24-.48.48-.73.71C96,169,77.6,161.29,74.24,159.75Z"/><path class="cls-1" d="M74.24,159.75a.36.36,0,0,0-.2,0c2.91,1.35,21.7,9.47,32.74-1.2.27-.24.52-.49.77-.75-.23.24-.48.48-.73.71C96,169,77.6,161.29,74.24,159.75Z"/><path class="cls-1" d="M60,168.4c6.05,0,9.42-1.5,11.31-3.31-1.88,1.78-5.22,3.28-11.16,3.27A.33.33,0,0,0,60,168.4Z"/><path class="cls-1" d="M60,168.4c6.05,0,9.42-1.5,11.31-3.31-1.88,1.78-5.22,3.28-11.16,3.27A.33.33,0,0,0,60,168.4Z"/><path class="cls-1" d="M56.53,172a11.84,11.84,0,0,0,1.85-1.47,11.69,11.69,0,0,1-1.85,1.46Z"/><path class="cls-1" d="M56.53,172a11.84,11.84,0,0,0,1.85-1.47,11.69,11.69,0,0,1-1.85,1.46Z"/><path class="cls-1" d="M121.83,65.69c9.83-9.8,21.48,1.08,24.45-2C143.24,66.64,131.62,55.87,121.83,65.69Z"/><path class="cls-1" d="M121.83,65.69c9.83-9.8,21.48,1.08,24.45-2C143.24,66.64,131.62,55.87,121.83,65.69Z"/><path class="cls-1" d="M44.94,170.66a.37.37,0,0,0-.29-.14c-4.35,0-6.07,0-6.54,0l0,0c.5,0,2.26,0,6.71,0a8.89,8.89,0,0,0,2.49,2.18l0-.05A8.74,8.74,0,0,1,44.94,170.66Z"/><path class="cls-1" d="M44.94,170.66a.37.37,0,0,0-.29-.14c-4.35,0-6.07,0-6.54,0l0,0c.5,0,2.26,0,6.71,0a8.89,8.89,0,0,0,2.49,2.18l0-.05A8.74,8.74,0,0,1,44.94,170.66Z"/><path class="cls-1" d="M51.39,173.7v0a7.27,7.27,0,0,1-3.61-.72.07.07,0,0,1-.06,0,7.36,7.36,0,0,0,3.83.72h-.16Z"/><path class="cls-1" d="M51.39,173.7v0a7.27,7.27,0,0,1-3.61-.72.07.07,0,0,1-.06,0,7.36,7.36,0,0,0,3.83.72h-.16Z"/><path class="cls-1" d="M99,85.28a.07.07,0,0,0,0,0,35.31,35.31,0,0,1,7.47-18.29,37.52,37.52,0,0,0-3.8,5.89A34.44,34.44,0,0,0,98.94,85.3c-2.51,8.82,10.51,44,1,62.76a21.32,21.32,0,0,1-2.29,3.6C111.36,134.3,96.33,94.76,99,85.28Z"/><path class="cls-1" d="M99,85.28a.07.07,0,0,0,0,0,35.31,35.31,0,0,1,7.47-18.29,37.52,37.52,0,0,0-3.8,5.89A34.44,34.44,0,0,0,98.94,85.3c-2.51,8.82,10.51,44,1,62.76a21.32,21.32,0,0,1-2.29,3.6C111.36,134.3,96.33,94.76,99,85.28Z"/><path class="cls-1" d="M52,173.63s0,0,0,0l0,0a10.88,10.88,0,0,0,4.22-1.46v0A10.75,10.75,0,0,1,52,173.63Z"/><path class="cls-1" d="M52,173.63s0,0,0,0l0,0a10.88,10.88,0,0,0,4.22-1.46v0A10.75,10.75,0,0,1,52,173.63Z"/><path class="cls-1" d="M21.9,170c-27.53,5.05-17-69.29-9-102.47a.33.33,0,0,0,0-.14C4.93,100.51-5.74,175.25,22,170l-.05,0Z"/><path class="cls-1" d="M21.9,170c-27.53,5.05-17-69.29-9-102.47a.33.33,0,0,0,0-.14C4.93,100.51-5.74,175.25,22,170l-.05,0Z"/><path class="cls-1" d="M12.84,67.24a.44.44,0,0,0-.14-.13C-3.91,59-1.22,39.78,4.27,33.12A15.08,15.08,0,0,0,2.4,36.05C-1.64,44.31-2,60.17,12.84,67.24Z"/><path class="cls-1" d="M12.84,67.24a.44.44,0,0,0-.14-.13C-3.91,59-1.22,39.78,4.27,33.12A15.08,15.08,0,0,0,2.4,36.05C-1.64,44.31-2,60.17,12.84,67.24Z"/><path d="M12.88,67.29s0,.06,0,.09l0-.07Z"/><path d="M55.7,23.57C56,27.92,73.12,33.94,62,56.6q-1.09,2.25-2.58,4.73c13.91,34.43,14.38,85.75,14.38,85.75s13.62,12,22.34,6.21l0-.06,0,.05C88,158.69,75.42,148.35,74,147.15a.37.37,0,0,1-.13-.28c0-3.22-.93-52.13-14.31-85.41a.35.35,0,0,1,0-.33c15.85-26.46-1.33-33.34-3.85-37.6C53.55,2.3,47.46.21,46.11,0a.31.31,0,0,0-.19,0C46.88.1,53.41,1.42,55.7,23.57Z"/><path d="M59.1,169.71l-.09.11Z"/><path d="M59.74,168.7a4.23,4.23,0,0,1-.55.89,4.29,4.29,0,0,0,.62-1,.39.39,0,0,1,.14-.17.33.33,0,0,0-.1,0Z"/><path d="M112.7,84.83c-3.36,16.72,7.82,49.9-1.5,67.83a22.4,22.4,0,0,1-2.26,3.54c13.28-16.72.21-53.48,3.8-71.4v0c2.16-8.42,4.81-13.94,7.67-17.49a29.85,29.85,0,0,0-3.5,5.59A62.91,62.91,0,0,0,112.7,84.83Z"/><path d="M73,162.81a7.93,7.93,0,0,1-1,1.55,7.38,7.38,0,0,0,1.7-4.29.37.37,0,0,1,.3-.34l-.34-.16A7,7,0,0,1,73,162.81Z"/><path d="M21.16,20.74a42.12,42.12,0,0,1,15.52-2.4,1.94,1.94,0,0,1,0-.2.35.35,0,0,1-.31.14,42.43,42.43,0,0,0-15,2.33.39.39,0,0,1-.41-.1C19.55,18.84,8.84,6.91,6,6.81a1,1,0,0,0-.77.38A1,1,0,0,1,6,6.85C9,7,21.16,20.74,21.16,20.74Z"/><path d="M110.06,62.9c14.83-14.49,38.75-16.47,36.53.32v0h0a1.24,1.24,0,0,1-.17.27,1.74,1.74,0,0,0,.19-.26,1,1,0,0,0,0-.16C148.77,46.38,124.86,48.4,110.06,62.9Z"/><path d="M5,32.32a.41.41,0,0,1-.07.11l0,0,.1-.11Z"/><path d="M58.65,170.22l.36-.4.09-.11.09-.12a4.23,4.23,0,0,0,.55-.89A5.9,5.9,0,0,1,58.65,170.22Z"/><path d="M59.86,168.4v0a.33.33,0,0,1,.1,0s0,0,.06,0Z"/><path d="M73.66,159.54v0l.34.16h0Z"/><path d="M71.61,164.8a5.34,5.34,0,0,0,.39-.44,7.93,7.93,0,0,0,1-1.55A7.81,7.81,0,0,1,71.61,164.8Z"/><path d="M146.58,63.24a2.46,2.46,0,0,1-.3.4l.12-.13a1.24,1.24,0,0,0,.17-.27Z"/><path d="M121.83,65.69a26.79,26.79,0,0,0-4.91,7.18,29.85,29.85,0,0,1,3.5-5.59Q121.13,66.41,121.83,65.69Z"/><path d="M58.55,170.32l-.17.16Z"/><path d="M59.46,61.33Q60.95,58.86,62,56.6c-.73,1.5-1.59,3.07-2.58,4.73Z"/><path d="M71.52,164.89a1.89,1.89,0,0,1-.2.2A1.89,1.89,0,0,0,71.52,164.89Z"/><path d="M107.55,157.77c.49-.5,1-1,1.39-1.57a22.4,22.4,0,0,0,2.26-3.54A21.06,21.06,0,0,1,107.55,157.77Z"/><path d="M12.93,67.28l-.09,0,0,.05,0,0,0,.07h0Z"/><path d="M5,32.34v0s0,0,0,0v0Z"/><path d="M36.68,18.34l.06-.2h0a1.94,1.94,0,0,0,0,.2Z"/><path d="M55.68,23.6C55.94,27.94,73.1,34,62,56.6c11.08-22.66-6.09-28.68-6.34-33C53.41,1.42,46.88.1,45.92,0l-.05,0C46.67.09,53.36,1.11,55.68,23.6Z"/><path d="M73.84,147.08s-.47-51.32-14.38-85.75l0,0c13.91,34.44,14.39,85.76,14.39,85.76s13.62,12,22.33,6.21a18.93,18.93,0,0,0,1.45-1.66,18.17,18.17,0,0,1-1.36,1.55l0,0,0,.06C87.46,159.1,73.84,147.08,73.84,147.08Z"/><path d="M146.58,63.24v0c2.22-16.79-21.7-14.81-36.53-.32a40.94,40.94,0,0,0-3.61,4C120.58,48.92,149,45,146.58,63.24Z"/><path d="M5,32.37H5l-.1.11a1.29,1.29,0,0,0-.16.17Z"/><path d="M59.74,168.7l.11-.27h0A1.81,1.81,0,0,1,59.74,168.7Z"/><path d="M5.94,6.87C9,7,21.14,20.77,21.14,20.77a42.2,42.2,0,0,1,15.53-2.4v0a42.12,42.12,0,0,0-15.52,2.4S9,7,6,6.85a1,1,0,0,0-.73.34l0,0A.93.93,0,0,1,5.94,6.87Z"/><path d="M4.27,33.12,4.41,33Z"/><path d="M111.2,152.66c9.32-17.93-1.86-51.11,1.5-67.83a62.91,62.91,0,0,1,4.22-12,62.42,62.42,0,0,0-4.23,12C109.33,101.57,120.5,134.72,111.2,152.66Z"/><path d="M73,162.81a7,7,0,0,0,.68-3.24h0A6.88,6.88,0,0,1,73,162.81Z"/><path d="M106.45,66.94A35.31,35.31,0,0,0,99,85.23a.07.07,0,0,1,0,0c-2.64,9.48,12.39,49-1.36,66.38a18.93,18.93,0,0,1-1.45,1.66c-8.71,5.81-22.33-6.21-22.33-6.21s-.48-51.32-14.39-85.76l0,0h0c1-1.66,1.85-3.23,2.58-4.73,11.06-22.64-6.1-28.66-6.36-33C53.36,1.11,46.67.09,45.87.05a.5.5,0,0,0-.15.14C44.73,2,37.77,14.57,36.8,18l-.06.12-.06.2h0v0a42.2,42.2,0,0,0-15.53,2.4S9,7,5.94,6.87a.93.93,0,0,0-.74.37C3.12,9.81,3.83,23.57,5,32.12a.37.37,0,0,1,0,.18v0l0,0H5l-.26.27a3,3,0,0,0-.29.32l-.14.16c-5.49,6.66-8.18,25.91,8.43,34a.44.44,0,0,1,.14.13l.09,0,0,.11a.33.33,0,0,1,0,.14c-8,33.18-18.53,107.52,9,102.47h0l-.38-.15s1.74-6.84,2.15-6.75-1.41,7-1.41,7a12,12,0,0,0,3,2.84c0-.18.11-1.36.31-1.38s.32,1.53.23,1.66l0,0a7.91,7.91,0,0,0,3.26,1c0-.24.13-1.62.33-1.64s.32,1.36.27,1.66a9.82,9.82,0,0,0,3.71-.75c0-.15-.25-1.61,0-1.63s.47,1.14.46,1.45A15.56,15.56,0,0,0,37.5,171h-.12s-1.6-11.33-2.33-13-2.1-29.71.58-36c0,0-2.25,25.5,0,35.09s2.91,12.27,2.62,13.14a1.61,1.61,0,0,1-.14.32c.47,0,2.19,0,6.54,0a.37.37,0,0,1,.29.14,8.74,8.74,0,0,0,2.36,2c.11-.2.5-.94.68-1s-.11,1.09-.2,1.22h0a7.27,7.27,0,0,0,3.61.72c0-.21,0-1.7.25-1.71s.37,1.46.32,1.67a10.75,10.75,0,0,0,4.15-1.44c0-.21-.25-1.6,0-1.61s.43.95.46,1.36a11.69,11.69,0,0,0,1.85-1.46l.17-.16.1-.1a5.9,5.9,0,0,0,1.09-1.52,1.81,1.81,0,0,0,.1-.27h0v0H60a.33.33,0,0,1,.15,0c5.94,0,9.28-1.49,11.16-3.27a1.89,1.89,0,0,0,.2-.2l.09-.09a7.81,7.81,0,0,0,1.37-2,6.88,6.88,0,0,0,.66-3.25h0v0l.38.18a.36.36,0,0,1,.2,0c3.36,1.54,21.73,9.22,32.58-1.27.25-.23.5-.47.73-.71a21.06,21.06,0,0,0,3.65-5.11c9.3-17.94-1.87-51.09,1.49-67.81a62.42,62.42,0,0,1,4.23-12,26.79,26.79,0,0,1,4.91-7.18c9.79-9.82,21.41,1,24.45-2a2.46,2.46,0,0,0,.3-.4C149,45,120.58,48.92,106.45,66.94ZM8.79,10.71c3.57.78,9.3,11,8.9,11.35C16.48,20.85,9.59,13.47,8.79,10.71ZM15.44,35c.11-2,6.42-4.18,7.46-2.11C19.14,32.28,15.44,35,15.44,35Zm9,13.53c-5.89-.16-1.2-10.62-1.2-10.62S30,47.76,24.46,48.52ZM46.35,4.93c-1.13,1.56-6,13.88-6,13.88S41.23,8.42,46.35,4.93ZM43.82,45.15C37.94,45.35,42,34.62,42,34.62S49.27,44,43.82,45.15ZM45,170.41c.32-1.62,1.71-48.5,1.44-48.49C46.75,122.18,48,157.07,45,170.41ZM40.54,29.23c1.12-2.11,6.79-1.82,7.55-.07C45.33,28,40.54,29.23,40.54,29.23ZM58.92,169.88s-2.51-7.46-1.64-7.81c0,0,1.42,6.19,2.34,6.48A2.7,2.7,0,0,1,58.92,169.88Z"/><path class="cls-2" d="M24.46,48.52c5.5-.76-1.2-10.62-1.2-10.62S18.57,48.36,24.46,48.52Z"/><path class="cls-2" d="M42,34.62s-4,10.73,1.86,10.53C49.27,44,42,34.62,42,34.62Z"/><path class="cls-2" d="M40.54,29.23s4.79-1.2,7.55-.07C47.33,27.41,41.66,27.12,40.54,29.23Z"/><path class="cls-2" d="M22.9,32.88c-1-2.07-7.35.09-7.46,2.11C15.44,35,19.14,32.28,22.9,32.88Z"/><path class="cls-2" d="M40.32,18.81s4.9-12.32,6-13.88C41.23,8.42,40.32,18.81,40.32,18.81Z"/><path class="cls-2" d="M8.79,10.71c.8,2.76,7.69,10.14,8.9,11.35C18.09,21.75,12.36,11.49,8.79,10.71Z"/><path class="cls-2" d="M37.52,171a.76.76,0,0,0,.54-.36h-.15Z"/><path class="cls-2" d="M38,170.58l-.09,0-.35.33h0l.39-.35h.15l0,0Z"/><path class="cls-2" d="M38.11,170.54a.29.29,0,0,0-.16,0h.13l0,0Z"/><path class="cls-2" d="M37.5,171h0l.35-.33h0Z"/><path class="cls-2" d="M37.86,170.63l.09,0h0Z"/><path class="cls-2" d="M38.11,170.54a1.61,1.61,0,0,0,.14-.32c.29-.87-.36-3.56-2.62-13.14s0-35.09,0-35.09c-2.68,6.25-1.3,34.29-.58,36s2.33,13,2.33,13h.12l.36-.32h0l.06,0h0a.29.29,0,0,1,.16,0Z"/><path class="cls-2" d="M45,170.41c3-13.34,1.8-48.23,1.44-48.49C46.66,121.91,45.27,168.79,45,170.41Z"/><path class="cls-2" d="M25.73,173.28l-.5-.3v0S25.59,173.31,25.73,173.28Z"/><path class="cls-2" d="M25.77,173.26c.09-.13,0-1.67-.23-1.66s-.3,1.2-.31,1.38l.5.3Z"/><path class="cls-2" d="M29.19,174.36a.62.62,0,0,0,.35,0Z"/><path class="cls-2" d="M29.57,174.35l-.49,0,.11,0,.35,0,0,0Z"/><path class="cls-2" d="M29,174.28v0l.08,0,.49,0s0,0,0,0Z"/><path class="cls-2" d="M29.32,172.64c-.2,0-.31,1.4-.33,1.64l.6,0C29.64,174,29.52,172.62,29.32,172.64Z"/><path class="cls-2" d="M33.71,173.45v0l-.33.14A.46.46,0,0,0,33.71,173.45Z"/><path class="cls-2" d="M33.32,173.56h.06l.33-.14v0Z"/><path class="cls-2" d="M33.3,173.55h0l.4-.16v0Z"/><path class="cls-2" d="M33.26,171.92c-.21,0,0,1.48,0,1.63l.42-.18C33.73,173.06,33.45,171.91,33.26,171.92Z"/><path class="cls-2" d="M56.13,172.22s.29,0,.38-.12,0-.07,0-.13l-.41.25Z"/><path class="cls-2" d="M56.11,172.21h0l.41-.25v0Z"/><path class="cls-2" d="M56.11,172.19v0l.42-.26h0Z"/><path class="cls-2" d="M56.07,170.58c-.21,0,0,1.4,0,1.61l.42-.25C56.5,171.53,56.25,170.56,56.07,170.58Z"/><path class="cls-2" d="M47.46,172.93a.54.54,0,0,0,.22.07l-.33-.18Z"/><path class="cls-2" d="M47.72,173a4.77,4.77,0,0,1-.44-.24h0l.07.07.33.18A.05.05,0,0,0,47.72,173Z"/><path class="cls-2" d="M47.3,172.69l0,.05a4.77,4.77,0,0,0,.44.24.07.07,0,0,0,.06,0C47.62,172.87,47.46,172.79,47.3,172.69Z"/><path class="cls-2" d="M47.78,173c.09-.13.42-1.24.2-1.22s-.57.76-.68,1c.16.1.32.18.48.26Z"/><path class="cls-2" d="M51.89,173.67c-.11,0-.23,0-.34,0A.71.71,0,0,0,51.89,173.67Z"/><path class="cls-2" d="M52,173.63l-.57,0v0h.16c.11,0,.23,0,.34,0l0,0S52,173.64,52,173.63Z"/><path class="cls-2" d="M51.64,172c-.21,0-.24,1.5-.25,1.71l.57,0C52,173.42,51.84,171.94,51.64,172Z"/><path class="cls-2" d="M22,170l.13.05-.05-.07Z"/><path class="cls-2" d="M22.1,170H22l0,0,.08,0,.05.07.05,0Z"/><path class="cls-2" d="M22.1,170l.07.09.09,0A.48.48,0,0,0,22.1,170Z"/><path class="cls-2" d="M22,170H22s-.07,0-.1,0Z"/><path class="cls-2" d="M22,170h.1l0,0Z"/><path class="cls-2" d="M23.67,163.1c-.41-.09-2.15,6.75-2.15,6.75l.38.15s.07,0,.1,0h.08l0,0a.48.48,0,0,1,.16.12S24.08,163.18,23.67,163.1Z"/><path class="cls-2" d="M57.28,162.07c-.87.35,1.64,7.81,1.64,7.81a2.7,2.7,0,0,0,.7-1.33C58.7,168.26,57.28,162.07,57.28,162.07Z"/></g></g></svg>