<svg width="297" height="164" viewBox="0 0 297 164" fill="none" xmlns="http://www.w3.org/2000/svg">
<g clip-path="url(#clip0_332_414)">
<path d="M48.5982 22.037C48.5637 22.0733 48.5639 22.0734 48.5642 22.0737L48.5656 22.0751L48.5715 22.0807L48.5946 22.1028L48.6864 22.1905C48.7674 22.2681 48.8878 22.3836 49.0452 22.5353C49.3599 22.8387 49.8225 23.2868 50.4138 23.8657C51.5964 25.0233 53.2939 26.7038 55.3536 28.7949C59.4731 32.9772 65.0409 38.8018 70.8348 45.3715C76.6287 51.9412 82.6482 59.2553 87.671 66.4166C92.6944 73.5787 96.7185 80.5846 98.525 86.5381L98.6228 86.523C98.3886 68.5529 85.8813 52.4188 73.4442 40.7825C67.2244 34.9632 61.0194 30.2662 56.3695 27.0241C54.0445 25.403 52.1081 24.1455 50.7529 23.2933C50.0753 22.8672 49.543 22.5424 49.18 22.324C48.9985 22.2149 48.8594 22.1323 48.7656 22.0771C48.7187 22.0494 48.6831 22.0286 48.6592 22.0147L48.6323 21.999L48.6255 21.9951L48.6237 21.9941C48.6234 21.9939 48.6232 21.9937 48.5982 22.037ZM48.5982 22.037L48.5637 22.0733L48.6232 21.9937L48.5982 22.037ZM186.602 83.8755L186.673 83.9414L186.685 83.8446C187.491 77.0875 190.75 69.0267 195.578 60.7603C200.406 52.4946 206.8 44.0268 213.87 36.4561C220.94 28.8853 228.685 22.213 236.216 17.5374C243.735 12.8691 251.033 10.195 257.229 10.5973C272.922 52.6909 265.808 88.711 260.747 105.228H37.8175L35.4097 98.7438L35.4096 98.7434L35.4074 98.735L35.3987 98.7014C35.391 98.6715 35.3795 98.6269 35.3646 98.568C35.3346 98.4501 35.2905 98.2746 35.234 98.0446C35.1211 97.5847 34.9586 96.9067 34.7605 96.0347C34.3645 94.2907 33.8261 91.7708 33.2572 88.6673C32.1193 82.4601 30.8593 73.9194 30.3704 64.5842C29.8814 55.2488 30.1638 45.1207 32.1097 35.7384C34.0536 26.3662 37.6568 17.7417 43.8059 11.394C65.4881 17.3153 82.2427 31.0394 93.8494 45.1968C105.463 59.3618 111.917 73.9542 113 81.589L113.016 81.7002L113.088 81.614C113.245 81.4261 113.569 81.1766 114.051 80.8792C114.531 80.5827 115.163 80.2412 115.932 79.8685C117.471 79.1231 119.556 78.254 122.066 77.3715C127.086 75.6066 133.801 73.789 141.234 72.8009C156.102 70.8245 173.829 72.1683 186.602 83.8755ZM249.524 26.9036L249.642 26.7732L249.473 26.8219C242.337 28.8766 235.649 33.9615 229.632 40.4273C223.614 46.8937 218.264 54.7448 213.805 62.3379C209.347 69.9313 205.779 77.268 203.325 82.7062C202.099 85.4254 201.151 87.67 200.509 89.235C200.189 90.0174 199.945 90.63 199.781 91.047C199.699 91.2554 199.637 91.415 199.596 91.5225L199.549 91.6443L199.537 91.6751L199.534 91.6829L199.533 91.6849C199.533 91.6851 199.533 91.6852 199.537 91.6869L199.533 91.6855L199.621 91.7312L199.58 91.7032C199.621 91.7312 199.621 91.7311 199.622 91.7308L199.623 91.7295L199.626 91.7242L199.64 91.7032L199.697 91.62C199.747 91.5463 199.821 91.4365 199.92 91.2923C200.116 91.0037 200.408 90.577 200.787 90.0247C201.546 88.9199 202.657 87.3123 204.064 85.3009C206.879 81.2782 210.881 75.6405 215.628 69.1809C225.123 56.2613 237.598 40.0546 249.524 26.9036Z" stroke="white" stroke-width="0.1"/>
<path d="M295.834 1.17596H1.1731V122.203H295.834V1.17596Z" stroke="white" stroke-width="0.1" stroke-miterlimit="10"/>
<path d="M54.0802 138.534C55.5765 139.227 56.908 140.231 57.9861 141.48L55.3352 143.984C54.5725 143.104 53.6346 142.393 52.5816 141.897C51.5127 141.394 50.3494 141.124 49.1686 141.104L49.1682 141.104C48.2597 141.095 47.3584 141.268 46.5173 141.612C45.6761 141.956 44.9119 142.465 44.2694 143.109C43.627 143.753 43.1191 144.519 42.7756 145.363C42.4323 146.206 42.2601 147.109 42.2691 148.019C42.2458 149.28 42.5493 150.525 43.1499 151.632L43.1502 151.633C43.7367 152.677 44.6031 153.537 45.6515 154.113C46.7482 154.72 47.9831 155.031 49.2356 155.016C50.2946 155.028 51.344 154.813 52.3138 154.387L52.3138 154.387L52.3161 154.386C53.4495 153.819 54.4784 153.063 55.3586 152.15L57.8931 154.796C56.6914 156.034 55.2771 157.046 53.7179 157.782C52.2845 158.364 50.7487 158.649 49.2025 158.621L49.2025 158.621L49.1998 158.621C47.7888 158.673 46.382 158.437 45.0651 157.927C43.7483 157.416 42.5491 156.642 41.5407 155.651C40.5458 154.65 39.7675 153.454 39.2543 152.138C38.7411 150.821 38.5042 149.413 38.5582 148.001L38.5583 148.001L38.5583 147.998C38.5221 146.126 38.9881 144.278 39.9078 142.647C40.8395 141.064 42.1828 139.764 43.7941 138.887L43.7941 138.887L43.7948 138.887C45.4588 137.946 47.3386 137.456 49.2489 137.466L49.249 137.466C50.9174 137.469 52.5654 137.834 54.0802 138.534Z" stroke="white" stroke-width="0.1"/>
<path d="M71.9636 156.535C71.332 157.162 70.593 157.669 69.7821 158.034C69.0286 158.34 68.2218 158.493 67.4087 158.485L67.408 158.485C66.471 158.488 65.5442 158.291 64.689 157.907C63.8338 157.523 63.0699 156.961 62.4481 156.259L62.4482 156.259L62.4473 156.258C61.0475 154.755 60.2947 152.761 60.3519 150.706L60.352 150.706L60.3518 150.702C60.2709 148.631 60.9957 146.608 62.3735 145.062L62.3737 145.062C62.9875 144.362 63.7448 143.805 64.5938 143.426C65.4428 143.048 66.3633 142.858 67.2923 142.869L67.2932 142.869C68.1523 142.865 69.0035 143.034 69.7955 143.368C70.6059 143.731 71.3394 144.246 71.956 144.887L72.0415 144.975L72.042 144.852L72.0486 143.25H75.6918V158.104H72.0488V156.57V156.45L71.9636 156.535ZM67.2929 142.819V142.819V142.819ZM65.1403 147.476L65.1403 147.476L65.1391 147.477C64.383 148.373 63.9681 149.508 63.9681 150.681C63.9681 151.854 64.383 152.988 65.1391 153.884L65.139 153.884L65.14 153.885C65.5062 154.294 65.9561 154.618 66.4588 154.837C66.9612 155.056 67.5046 155.163 68.0522 155.152C68.6053 155.167 69.1552 155.064 69.6654 154.849C70.1759 154.634 70.6348 154.313 71.0116 153.906L71.012 153.905C71.8148 153.017 72.236 151.847 72.1844 150.65C72.2089 150.067 72.118 149.484 71.9169 148.936C71.7157 148.387 71.408 147.884 71.0116 147.455L71.0111 147.455C70.632 147.056 70.1742 146.742 69.6669 146.531C69.1599 146.32 68.6147 146.217 68.066 146.229C67.518 146.215 66.9733 146.319 66.4687 146.534C65.9638 146.749 65.5108 147.07 65.1403 147.476Z" stroke="white" stroke-width="0.1"/>
<path d="M83.2117 152.133V158.084H79.5687V143.25H83.2117V144.736V144.848L83.295 144.774C83.9787 144.163 84.7517 143.662 85.5871 143.287C86.2513 143.01 86.9636 142.869 87.6828 142.869L87.6837 142.869C88.3775 142.857 89.0664 142.987 89.7084 143.251C90.3499 143.514 90.931 143.906 91.4162 144.403C91.8733 144.93 92.2219 145.543 92.442 146.206C92.6622 146.869 92.7493 147.57 92.6982 148.267L92.6981 148.267V148.271V158.104H89.1026V151.603C89.1515 150.411 89.0693 149.218 88.8576 148.045L88.8577 148.044L88.8574 148.043C88.7414 147.496 88.4406 147.006 88.0058 146.655L88.0058 146.655L88.0043 146.654C87.5713 146.331 87.042 146.165 86.5026 146.182C85.7664 146.169 85.0549 146.447 84.5223 146.957L84.5223 146.957L84.5218 146.957C83.9351 147.536 83.5377 148.28 83.3822 149.091L83.3821 149.091L83.3818 149.093C83.2306 150.099 83.1736 151.116 83.2117 152.133Z" stroke="white" stroke-width="0.1"/>
<path d="M107.339 156.535C106.707 157.162 105.969 157.669 105.158 158.034C104.406 158.34 103.602 158.493 102.791 158.485L102.79 158.485C101.853 158.489 100.926 158.292 100.071 157.908C99.2155 157.524 98.4517 156.962 97.8305 156.259L97.8305 156.259L97.8296 156.258C96.4298 154.755 95.677 152.761 95.7341 150.706L95.7343 150.706L95.7341 150.702C95.6496 148.63 96.3749 146.606 97.7557 145.062L97.756 145.062C98.3695 144.362 99.1268 143.804 99.9758 143.426C100.825 143.047 101.745 142.857 102.675 142.869L102.675 142.869C103.532 142.865 104.381 143.035 105.171 143.368C105.983 143.728 106.717 144.244 107.331 144.886L107.417 144.976L107.417 144.852L107.424 137.479H111.067V158.104H107.424V156.57V156.45L107.339 156.535ZM103.491 146.228V146.217L103.443 146.216C102.895 146.202 102.351 146.306 101.847 146.521C101.344 146.736 100.892 147.057 100.523 147.462L100.523 147.462C99.7338 148.331 99.3175 149.476 99.3636 150.65C99.32 151.837 99.7435 152.994 100.543 153.872C100.91 154.279 101.359 154.604 101.862 154.822C102.364 155.041 102.907 155.149 103.455 155.139C104.008 155.154 104.558 155.05 105.068 154.836C105.579 154.621 106.037 154.299 106.414 153.892L106.415 153.892C107.217 153.003 107.639 151.834 107.587 150.636C107.611 150.053 107.521 149.471 107.32 148.923C107.118 148.374 106.811 147.871 106.414 147.442L106.414 147.442L106.414 147.441C106.031 147.041 105.568 146.726 105.056 146.517C104.559 146.315 104.027 146.217 103.491 146.228Z" stroke="white" stroke-width="0.1"/>
<path d="M114.734 137.757C115.146 137.344 115.697 137.101 116.278 137.074L116.258 137.1L116.36 137.098C116.668 137.094 116.974 137.154 117.258 137.274C117.542 137.394 117.799 137.572 118.011 137.797L118.011 137.797L118.012 137.797C118.23 138.02 118.401 138.284 118.515 138.575C118.629 138.865 118.683 139.175 118.675 139.487L118.675 139.487L118.675 139.49C118.684 139.8 118.63 140.109 118.516 140.397C118.402 140.685 118.23 140.947 118.012 141.166L118.011 141.167C117.8 141.385 117.546 141.556 117.266 141.671C116.985 141.785 116.684 141.84 116.381 141.831L116.379 141.831C116.068 141.836 115.759 141.775 115.472 141.654C115.186 141.533 114.927 141.353 114.714 141.127L114.713 141.126C114.494 140.899 114.323 140.629 114.208 140.334C114.094 140.04 114.04 139.725 114.049 139.409L114.049 139.407C114.051 138.788 114.297 138.195 114.734 137.757ZM118.18 143.25V158.104H114.537V143.25H118.18Z" stroke="white" stroke-width="0.1"/>
<path d="M133.13 153.45L135.999 155.433C135.214 156.439 134.201 157.242 133.043 157.776C131.87 158.317 130.583 158.565 129.292 158.499L129.293 158.499H129.29C126.674 158.499 124.634 157.725 123.162 156.183L123.162 156.183L123.162 156.182C122.315 155.325 121.68 154.282 121.308 153.136C120.936 151.989 120.836 150.771 121.018 149.579C121.199 148.387 121.656 147.254 122.353 146.271C123.049 145.288 123.965 144.482 125.028 143.917C126.358 143.217 127.841 142.862 129.343 142.883L129.345 142.883C130.717 142.861 132.075 143.162 133.309 143.762C134.45 144.324 135.43 145.166 136.161 146.208L133.126 147.881C132.668 147.349 132.096 146.926 131.452 146.645C130.797 146.358 130.085 146.225 129.371 146.256C128.745 146.23 128.12 146.329 127.533 146.547C126.944 146.765 126.405 147.098 125.947 147.527L125.947 147.527L125.946 147.528C125.512 147.948 125.17 148.454 124.943 149.014C124.716 149.574 124.609 150.175 124.629 150.779C124.609 151.364 124.711 151.946 124.93 152.488C125.148 153.031 125.478 153.522 125.899 153.928L125.899 153.929C126.342 154.344 126.863 154.666 127.432 154.876C128 155.086 128.604 155.18 129.208 155.152C129.956 155.192 130.703 155.056 131.389 154.754C132.061 154.459 132.657 154.012 133.13 153.45ZM129.344 142.833V142.833V142.833Z" stroke="white" stroke-width="0.1"/>
<path d="M143.885 154.339C144.712 154.994 145.746 155.331 146.799 155.288C147.474 155.297 148.143 155.17 148.769 154.916C149.383 154.666 149.943 154.297 150.416 153.83L153.484 155.272C152.778 156.299 151.823 157.13 150.709 157.688C149.493 158.247 148.164 158.52 146.826 158.485L146.826 158.485L146.823 158.485C145.777 158.525 144.733 158.351 143.757 157.972C142.78 157.593 141.891 157.019 141.144 156.283C140.423 155.561 139.857 154.698 139.481 153.749C139.104 152.799 138.925 151.782 138.955 150.76L138.955 150.76L138.955 150.757C138.924 149.718 139.101 148.682 139.476 147.712C139.851 146.742 140.416 145.858 141.138 145.111L141.138 145.111C141.847 144.377 142.701 143.799 143.644 143.413C144.588 143.027 145.601 142.842 146.62 142.869L146.62 142.87L146.624 142.869C147.675 142.829 148.724 143.008 149.704 143.394C150.683 143.78 151.572 144.364 152.316 145.111C153.059 145.903 153.636 146.836 154.012 147.856C154.389 148.877 154.556 149.962 154.505 151.049L154.505 151.05L154.493 151.715H142.519H142.462L142.47 151.772C142.607 152.773 143.111 153.688 143.884 154.338L143.884 154.338L143.885 154.339ZM150.799 148.858L150.865 148.858L150.847 148.794C150.606 147.956 150.084 147.226 149.37 146.728C148.621 146.196 147.722 145.919 146.805 145.937C145.807 145.919 144.832 146.23 144.029 146.824L144.029 146.824L144.026 146.826C143.416 147.356 142.946 148.028 142.656 148.783L142.63 148.851L142.702 148.851L150.799 148.858Z" stroke="white" stroke-width="0.1"/>
<path d="M169.613 141.6H169.663L170.965 141.6L170.965 141.6M169.613 141.6L176.159 143.248C175.083 142.178 173.352 141.646 170.965 141.65V141.6M169.613 141.6V141.65V154.402V154.452H169.663H171.445C172.753 154.531 174.062 154.323 175.282 153.844L175.282 153.844L175.288 153.841C176.14 153.376 176.825 152.655 177.248 151.78M169.613 141.6L176.194 143.212M170.965 141.6C173.358 141.596 175.105 142.129 176.194 143.212M170.965 141.6L176.194 143.212M178.006 148.236C178.006 146.084 177.404 144.407 176.194 143.212M178.006 148.236C178.006 148.236 178.006 148.236 178.006 148.235L177.956 148.237H178.006C178.006 148.237 178.006 148.236 178.006 148.236ZM178.006 148.236C178.045 149.462 177.785 150.678 177.248 151.78M177.248 151.78C177.248 151.78 177.248 151.78 177.248 151.78L177.203 151.758L177.248 151.78C177.248 151.78 177.248 151.78 177.248 151.78ZM178.891 155.834L178.891 155.835C178.062 156.646 177.058 157.253 175.956 157.61C174.157 158.015 172.314 158.181 170.472 158.104L170.472 158.104H170.47H165.902V137.989H170.395C173.331 137.989 175.5 138.354 176.909 139.078C178.4 139.876 179.619 141.105 180.407 142.605C181.195 144.138 181.657 145.818 181.761 147.54C181.866 149.262 181.612 150.986 181.015 152.604C180.552 153.824 179.827 154.927 178.891 155.834Z" stroke="white" stroke-width="0.1"/>
<path d="M200.007 151.715H188.005H187.948L187.955 151.771C188.081 152.767 188.57 153.682 189.328 154.338L189.328 154.338L189.33 154.339C190.157 154.994 191.191 155.33 192.244 155.288C192.919 155.299 193.589 155.173 194.215 154.918C194.83 154.668 195.389 154.298 195.861 153.83L198.929 155.272C198.223 156.297 197.272 157.128 196.161 157.688C194.942 158.248 193.612 158.521 192.272 158.485L192.272 158.485L192.268 158.485C191.222 158.525 190.179 158.351 189.202 157.972C188.225 157.593 187.336 157.019 186.589 156.283C185.868 155.561 185.302 154.698 184.926 153.749C184.549 152.799 184.371 151.782 184.4 150.76L184.4 150.76L184.4 150.757C184.369 149.718 184.546 148.682 184.921 147.712C185.296 146.742 185.861 145.858 186.583 145.111C187.293 144.378 188.146 143.8 189.09 143.414C190.033 143.028 191.047 142.843 192.065 142.869L192.065 142.87L192.069 142.869C193.12 142.829 194.169 143.008 195.149 143.394C196.128 143.78 197.017 144.364 197.761 145.111C198.504 145.903 199.081 146.836 199.457 147.856C199.834 148.877 200.001 149.962 199.95 151.049L199.95 151.049L199.951 151.055L200.007 151.715ZM196.318 148.858L196.385 148.858L196.366 148.794C196.12 147.956 195.597 147.228 194.883 146.728C194.134 146.195 193.235 145.918 192.317 145.937C191.332 145.927 190.37 146.238 189.576 146.824L189.576 146.823L189.572 146.826C188.965 147.358 188.495 148.03 188.203 148.783L188.176 148.851L188.249 148.851L196.318 148.858Z" stroke="white" stroke-width="0.1"/>
<path d="M207.247 155.241C207.685 155.263 208.118 155.133 208.472 154.871C208.612 154.775 208.727 154.646 208.809 154.497C208.89 154.347 208.935 154.18 208.94 154.009L208.94 154.009V154.008C208.94 153.703 208.796 153.406 208.519 153.118C208.243 152.831 207.83 152.548 207.285 152.271L207.285 152.271L206.024 151.645C206.024 151.645 206.024 151.645 206.024 151.645C203.618 150.426 202.43 148.912 202.43 147.109L202.43 147.108C202.426 146.543 202.543 145.983 202.774 145.468C203.005 144.952 203.345 144.493 203.77 144.121L203.77 144.121L203.77 144.121C204.717 143.271 205.957 142.825 207.227 142.876L207.229 142.876C208.176 142.872 209.111 143.092 209.957 143.518C210.796 143.941 211.524 144.555 212.084 145.311L209.866 147.528C208.935 146.617 208.081 146.148 207.305 146.148C206.945 146.127 206.588 146.223 206.286 146.421L206.286 146.421L206.285 146.421C206.168 146.501 206.073 146.609 206.007 146.735C205.942 146.861 205.909 147.001 205.911 147.143M207.247 155.241C206.683 155.213 206.136 155.048 205.651 154.758C205.075 154.452 204.561 154.041 204.135 153.546L201.896 155.989C202.485 156.786 203.256 157.429 204.145 157.865C205.047 158.306 206.041 158.522 207.044 158.492L207.048 158.492L207.048 158.492C208.465 158.557 209.852 158.075 210.925 157.145C211.723 156.412 212.23 155.415 212.353 154.336C212.477 153.259 212.208 152.173 211.597 151.279C210.788 150.338 209.777 149.595 208.64 149.105L208.637 149.104L208.637 149.104L207.283 148.425C206.872 148.258 206.49 148.026 206.152 147.738L206.148 147.734L206.148 147.734C205.997 147.574 205.913 147.363 205.911 147.143M207.247 155.241C207.247 155.241 207.246 155.241 207.246 155.241L207.249 155.191L207.247 155.241C207.247 155.241 207.247 155.241 207.247 155.241ZM205.911 147.143C205.911 147.143 205.911 147.143 205.911 147.143L205.961 147.143L205.911 147.143C205.911 147.143 205.911 147.143 205.911 147.143ZM207.229 142.826V142.826V142.826Z" stroke="white" stroke-width="0.1"/>
<path d="M215.239 137.757C215.652 137.344 216.203 137.101 216.783 137.074L216.763 137.1L216.865 137.098C217.173 137.094 217.479 137.154 217.763 137.274C218.048 137.394 218.304 137.572 218.516 137.797L218.516 137.797L218.517 137.797C218.958 138.247 219.204 138.852 219.204 139.482C219.204 140.112 218.958 140.717 218.517 141.167L218.517 141.167C218.305 141.384 218.051 141.555 217.77 141.669C217.49 141.783 217.189 141.839 216.886 141.831L216.884 141.831C216.573 141.837 216.264 141.777 215.977 141.655C215.691 141.534 215.432 141.354 215.219 141.127L215.219 141.127L215.219 141.126C214.999 140.899 214.828 140.629 214.714 140.334C214.6 140.04 214.546 139.725 214.554 139.409L214.555 139.407C214.556 138.788 214.802 138.195 215.239 137.757ZM215.029 143.25H218.672V158.104H215.029V143.25Z" stroke="white" stroke-width="0.1"/>
<path d="M229.049 160.577C229.89 160.61 230.727 160.451 231.497 160.11L231.498 160.11C232.058 159.852 232.52 159.42 232.816 158.878L232.816 158.879L232.819 158.872C233.126 158.05 233.254 157.171 233.195 156.295L233.187 156.181L233.109 156.264C232.54 156.867 231.853 157.347 231.092 157.673C230.315 157.97 229.488 158.116 228.657 158.104L228.655 158.104C227.712 158.118 226.776 157.933 225.909 157.561C225.042 157.189 224.263 156.639 223.621 155.946C222.274 154.397 221.542 152.406 221.566 150.351C221.589 148.296 222.367 146.322 223.749 144.805C224.362 144.179 225.096 143.685 225.905 143.353C226.715 143.02 227.584 142.855 228.459 142.869L228.46 142.869C229.287 142.865 230.107 143.023 230.874 143.334C231.72 143.711 232.491 144.237 233.151 144.887L233.238 144.974L233.236 144.851L233.203 143.25H236.831V156.006C236.831 158.53 236.33 160.378 235.324 161.554L235.324 161.555C233.98 163.153 231.944 163.957 229.205 163.957L229.204 163.957C227.958 163.989 226.716 163.804 225.533 163.409C224.59 163.072 223.736 162.523 223.037 161.804C222.355 161.094 221.844 160.237 221.543 159.299H225.582C225.968 159.73 226.454 160.058 226.998 160.254L226.999 160.254C227.657 160.484 228.352 160.593 229.049 160.577ZM229.049 160.577C229.048 160.577 229.048 160.577 229.047 160.577L229.049 160.527L229.051 160.577C229.05 160.577 229.049 160.577 229.049 160.577ZM226.321 147.475L226.321 147.475C226.703 147.079 227.162 146.767 227.671 146.559C228.179 146.352 228.725 146.253 229.273 146.27C229.819 146.253 230.362 146.35 230.868 146.554C231.375 146.757 231.835 147.064 232.218 147.454L232.218 147.455L232.218 147.455C232.606 147.864 232.908 148.347 233.106 148.875C233.304 149.402 233.394 149.964 233.371 150.528C233.371 150.528 233.371 150.529 233.371 150.53L233.321 150.528C233.345 151.088 233.257 151.648 233.063 152.175C232.868 152.701 232.571 153.183 232.189 153.593L226.321 147.475ZM226.321 147.475L226.32 147.476C225.562 148.313 225.142 149.404 225.142 150.534C225.142 151.665 225.562 152.756 226.32 153.593L226.32 153.593L226.322 153.594C226.711 153.993 227.179 154.307 227.695 154.515C228.211 154.724 228.765 154.823 229.321 154.806L226.321 147.475Z" stroke="white" stroke-width="0.1"/>
<path d="M244.358 152.133V158.084H240.715V143.25H244.358V144.736V144.848L244.441 144.773C245.124 144.162 245.897 143.66 246.733 143.287C247.397 143.01 248.11 142.869 248.829 142.869L248.83 142.869C249.523 142.856 250.211 142.986 250.852 143.25C251.492 143.513 252.072 143.906 252.556 144.403C253.015 144.929 253.365 145.542 253.587 146.205C253.808 146.868 253.896 147.569 253.844 148.267L253.844 148.267V148.271V158.104H250.242V151.603C250.292 150.411 250.212 149.218 250.004 148.045L250.004 148.045L250.003 148.043C249.882 147.498 249.583 147.009 249.152 146.655L249.152 146.655L249.15 146.654C248.717 146.332 248.188 146.166 247.649 146.182C246.913 146.169 246.201 146.447 245.668 146.957L245.668 146.957L245.668 146.957C245.082 147.538 244.682 148.281 244.522 149.09L244.522 149.09L244.521 149.093C244.377 150.099 244.322 151.117 244.358 152.133Z" stroke="white" stroke-width="0.1"/>
</g>
<path d="M0 0V-0.1H-0.1V0H0ZM297 0H297.1V-0.1H297V0ZM297 164V164.1H297.1V164H297ZM0 164H-0.1V164.1H0V164ZM0 0.1H297V-0.1H0V0.1ZM296.9 0V164H297.1V0H296.9ZM297 163.9H0V164.1H297V163.9ZM0.1 164V0H-0.1V164H0.1Z" fill="white"/>
<defs>
<clipPath id="clip0_332_414">
<rect width="297" height="164" fill="white"/>
</clipPath>
</defs>
</svg>
