<svg width="625" height="281" viewBox="0 0 625 281" fill="none" xmlns="http://www.w3.org/2000/svg">
<path fill-rule="evenodd" clip-rule="evenodd" d="M565.696 86.5004C561.485 38.1309 513.981 0 456 0C425.436 0 397.784 10.5953 377.849 27.7005C363.316 18.395 346.038 13 327.5 13C302.492 13 279.777 22.8178 263 38.8093C246.223 22.8178 223.508 13 198.5 13C162.69 13 131.582 33.1314 115.876 62.6943C108.706 60.9337 101.212 60 93.5 60C41.8613 60 0 101.861 0 153.5C0 205.139 41.8613 247 93.5 247C120.123 247 144.146 235.873 161.175 218.017C174.028 254.671 209.39 281 251 281C283.72 281 312.576 264.72 329.663 239.941C349 254.3 374.305 263 402 263C422.658 263 441.986 258.16 458.5 249.74C475.014 258.16 494.342 263 515 263C575.751 263 625 221.139 625 169.5C625 133.402 600.934 102.083 565.696 86.5004Z" fill="#F5B7FF"/>
</svg>
