<svg width="367" height="201" viewBox="0 0 367 201" fill="none" xmlns="http://www.w3.org/2000/svg">
<path fill-rule="evenodd" clip-rule="evenodd" d="M200.52 33.2295C190.548 13.5156 170.102 0 146.5 0C120.15 0 97.7343 16.8456 89.4349 40.3549C80.8396 35.6652 70.9811 33 60.5 33C27.0868 33 0 60.0868 0 93.5C0 126.913 27.0868 154 60.5 154C66.5797 154 72.4498 153.103 77.9856 151.435C83.1323 179.628 107.82 201 137.5 201C161.288 201 181.87 187.271 191.753 167.304C201.822 186.728 222.111 200 245.5 200C270.662 200 292.236 184.64 301.357 162.784C303.052 162.927 304.768 163 306.5 163C339.913 163 367 135.913 367 102.5C367 69.0868 339.913 42 306.5 42C300.386 42 294.484 42.907 288.921 44.5936C277.964 29.109 259.912 19 239.5 19C224.649 19 211.048 24.3507 200.52 33.2295Z" fill="#F5B7FF"/>
</svg>
